<svg width="380" height="409" viewBox="0 0 380 409" fill="none" xmlns="http://www.w3.org/2000/svg">
<path fill-rule="evenodd" clip-rule="evenodd" d="M190.338 191.237C179.835 178.199 163.365 181.182 151.794 188.302C159.2 185.151 164.337 183.924 171.395 185.994C161.477 186.313 148.405 194.84 144.17 203.204C156.561 188.672 177.361 187.245 190.338 191.237Z" fill="white"/>
<path fill-rule="evenodd" clip-rule="evenodd" d="M186.976 177.28L192.78 178.252C181.944 180.387 172.911 179.361 165.562 177.527C183.415 185.203 199.329 179.5 215.461 171.413C196.68 171.728 200.407 163.344 189.368 160.687L191.445 166.451C183.422 162.31 179.054 161.744 170.438 162.405L178.929 165.733C174.338 165.689 169.845 167.4 166.192 170.285L175.337 168.915C175.676 171.803 178.183 174.243 180.023 175.453C178.051 172.501 178.017 171.139 178.661 169.197C179 172.054 183.56 177.103 191.259 173.426C188.91 172.894 187.877 172.016 187.914 170.457C197.398 168.224 194.186 175.538 186.976 177.286V177.28Z" fill="white"/>
<path fill-rule="evenodd" clip-rule="evenodd" d="M210.805 180.537C206.556 180.672 192.621 186.803 191.164 189.199C207.004 186.928 231.145 185.346 232.046 209.185C237.332 206.633 239.714 196.025 236.37 187.257C236.841 191.982 237.271 197.15 234.899 200.658C234.164 194.371 224.057 185.556 219.469 186.989C218.412 181.177 209.074 187.457 210.802 180.533L210.805 180.537Z" fill="white"/>
<path fill-rule="evenodd" clip-rule="evenodd" d="M228.417 200.357C221.389 190.528 207.308 190.61 201.92 191.088C201.985 191.142 228.108 200.34 228.417 200.357Z" fill="white"/>
<path fill-rule="evenodd" clip-rule="evenodd" d="M213.832 199.492C172.963 200.658 153.345 240.981 191.175 248.295C139.928 241.747 163.906 198.251 209.495 197.377C191.673 195.706 138.342 202.311 156.612 236.26C125.379 203.786 182.013 192.497 202.271 194.045C185.723 192.303 145.139 193.842 141.436 215.963C136.804 194.737 148.141 174.361 163.883 170.66C147.931 172.609 138.034 188.555 137.719 202.359C134.205 176.347 150.486 151.146 176.504 144.171C204.748 136.6 233.789 153.372 241.355 181.624C248.026 206.534 235.778 232.061 213.425 242.94C188.058 246.492 194.163 215.671 207.476 207.629C183.026 214.285 180.861 253.518 211.081 244.188C168.752 258.429 168.677 204.518 213.832 199.495V199.492ZM247.47 179.977C239 148.35 206.486 129.574 174.867 138.05C143.248 146.523 124.478 179.045 132.952 210.672C141.422 242.3 173.936 261.076 205.555 252.599C237.174 244.127 255.944 211.604 247.47 179.977Z" fill="white"/>
<path fill-rule="evenodd" clip-rule="evenodd" d="M210.018 211.151C195.33 225.681 201.87 245.466 219.57 237.061C204.296 237.529 201.083 223.976 210.018 211.151Z" fill="white"/>
<path fill-rule="evenodd" clip-rule="evenodd" d="M217.672 169.552C221.779 170.406 225.357 172.718 227.824 176.374C226.939 172.972 223.917 168.213 220.823 166.539C216.578 159.795 209.253 156.046 199.837 156.66C203.923 157.145 215.704 161.293 216.764 166.085C216.846 168.21 215.114 169.02 217.676 169.552H217.672Z" fill="white"/>
<path fill-rule="evenodd" clip-rule="evenodd" d="M221.098 174.593C218.32 174.681 215.738 177.423 215.596 180.948C218.344 180.619 223.914 176.759 221.098 174.593Z" fill="white"/>
<path fill-rule="evenodd" clip-rule="evenodd" d="M164.724 159.014C174.353 153.924 187.195 152.216 202.527 155.873C194.954 151.084 181.279 149.701 169.271 153.917C157.124 158.184 146.753 168.345 144.161 180.332C148.179 172.7 154.844 164.237 164.724 159.014Z" fill="white"/>
<path fill-rule="evenodd" clip-rule="evenodd" d="M279.561 37.8559C305.002 35.1038 330.901 31.1706 357.606 26.068V56.1519L372.519 64.3609L380 68.4831V0L353.197 5.1144C316.36 12.1541 280.873 16.8668 245.845 19.2882C231.923 20.2449 218.089 20.8355 204.266 21.0599C195.62 21.2017 186.974 21.2017 178.316 21.0599C164.494 20.8355 150.658 20.2449 136.736 19.2882C101.708 16.8787 66.2214 12.1541 29.3974 5.1144L2.59424 0V93.1455V154.825L25.0006 167.168L58.6294 185.677C57.205 200.914 58.704 216.174 62.9029 230.738C64.9218 237.695 67.5472 244.51 70.7676 251.077C73.926 257.503 77.667 263.704 81.9526 269.597C86.2506 275.491 91.0929 281.078 96.4809 286.264C104.681 294.177 114.119 301.193 124.709 307.028C135.311 312.863 146.397 317.151 157.693 319.974C165.1 321.828 172.594 323.033 180.087 323.623C187.581 324.226 195.087 324.214 202.494 323.623V280.653C210.185 279.708 217.716 277.807 224.888 275.007C232.121 272.172 238.996 268.428 245.275 263.798C251.32 259.357 256.82 254.113 261.601 248.112C263.843 245.301 265.911 242.337 267.806 239.195C269.701 236.065 271.361 232.864 272.798 229.604C275.858 222.67 277.864 215.489 278.892 208.284C279.945 200.784 279.92 193.236 278.88 185.854L258.505 197.063L257.266 197.748C256.832 232.179 227.464 259.948 191.284 259.948C187.469 259.948 183.729 259.64 180.087 259.05V280.665V302.174C172.557 301.453 165.051 299.977 157.681 297.733C150.249 295.465 142.941 292.406 135.906 288.543C128.871 284.669 122.442 280.157 116.67 275.161C110.948 270.188 105.857 264.731 101.435 258.873C97.0383 253.05 93.2985 246.849 90.2515 240.364C87.1179 233.702 84.7146 226.757 83.092 219.647C81.4447 212.477 80.5775 205.142 80.5156 197.76C80.4537 190 81.2954 182.204 83.0666 174.491L62.8775 163.377L25.0127 142.518V80.8497V26.1034C51.7295 31.206 77.6175 35.1392 103.059 37.8913C116.089 39.3087 129.008 40.4072 141.864 41.1985C174.973 43.2537 207.659 43.2537 240.767 41.1985C253.612 40.4072 266.531 39.3087 279.561 37.8913V37.8559Z" fill="white"/>
<path fill-rule="evenodd" clip-rule="evenodd" d="M354.727 277.18C369.95 250.581 376.961 219.575 377.134 188.972V93.3696L354.74 81.0384L343.53 74.8728L321.124 62.5298L298.716 74.861L265.088 93.3814C251.984 84.5818 237.368 78.18 222.058 74.3649C214.726 72.5459 207.232 71.3057 199.652 70.6915C192.232 70.0891 184.739 70.0773 177.245 70.6679C169.752 71.2703 162.246 72.4869 154.839 74.3295C143.542 77.1406 132.456 81.4282 121.853 87.2631C111.263 93.0979 101.826 100.114 93.6261 108.028C88.2505 113.225 83.3945 118.812 79.0965 124.705C74.8108 130.588 71.0699 136.789 67.9114 143.214L87.4076 153.939L106.941 164.699C103.944 171.526 101.912 178.696 100.872 186.019C99.8187 193.413 99.7933 200.96 100.846 208.461C101.862 215.666 103.869 222.847 106.928 229.78C108.365 233.04 110.025 236.241 111.92 239.371C113.815 242.513 115.896 245.49 118.125 248.289C122.906 254.289 128.407 259.534 134.451 263.975C140.731 268.593 147.605 272.349 154.839 275.184V251.384C135.479 240.423 122.486 220.284 122.486 197.24C122.486 181.932 128.233 167.9 137.758 156.998L118.113 146.179L98.5806 135.43C103.002 129.584 108.093 124.115 113.815 119.154C119.6 114.146 126.015 109.646 133.05 105.772C140.098 101.897 147.395 98.8383 154.839 96.5705C162.209 94.3263 169.714 92.8617 177.245 92.1294C184.739 91.3971 192.245 91.4207 199.652 92.1412C207.269 92.8853 214.775 94.3736 222.058 96.5823C229.391 98.8029 236.488 101.756 243.202 105.417C250.287 109.244 256.951 113.839 263.069 119.154L283.283 108.028L321.136 87.1804L354.752 105.677V187.755C354.752 188.133 354.752 188.499 354.752 188.865C354.492 232.178 338.996 277.31 301.763 304.382L266.871 329.741V337.171V356.601L315.352 321.367C325.669 313.866 334.574 305.22 342.167 295.712C346.861 289.83 351.048 283.617 354.752 277.145L354.727 277.18Z" fill="white"/>
<path fill-rule="evenodd" clip-rule="evenodd" d="M75.3829 299.036C39.0665 272.625 23.4224 229.017 22.3944 186.685L17.3044 183.874L0 174.342V182.409V183.649C0.185793 214.229 7.19619 245.211 22.4065 271.799C26.1099 278.271 30.2967 284.496 34.991 290.378C42.5838 299.886 51.4899 308.532 61.8077 316.033L139.99 372.858L188.691 408.257L237.42 372.846L244.703 367.554V307.138C259.256 300.713 272.372 291.831 283.495 281.094C288.821 275.944 293.689 270.381 298.037 264.428C302.298 258.605 306.064 252.416 309.26 245.931C312.468 239.435 315.117 232.643 317.136 225.604C320.221 214.867 321.88 203.564 321.88 191.894C321.88 180.224 320.221 168.932 317.136 158.196C315.105 151.156 312.468 144.352 309.26 137.856C306.052 131.372 302.285 125.194 298.037 119.359L278.554 130.096L259.02 140.844C254.314 134.962 248.814 129.683 242.67 125.159C236.49 120.6 229.641 116.796 222.308 113.926C215.248 111.15 207.742 109.225 199.902 108.292C196.235 107.855 192.481 107.619 188.691 107.619C184.901 107.619 181.161 107.855 177.482 108.292C169.654 109.237 162.136 111.162 155.076 113.926C147.731 116.796 140.894 120.6 134.713 125.159L155.076 136.368L156.326 137.041C165.888 131.915 176.925 128.974 188.679 128.974C217.093 128.974 241.309 146.101 250.586 170.125L270.218 159.318L289.751 148.569C292.848 155.148 295.276 162.082 296.923 169.298C298.583 176.562 299.462 184.122 299.462 191.87C299.462 199.618 298.583 207.178 296.923 214.454C295.276 221.671 292.86 228.604 289.751 235.183C286.655 241.738 282.889 247.916 278.529 253.68C274.045 259.597 268.93 265.054 263.282 269.956C257.597 274.905 251.366 279.287 244.677 283.02C237.679 286.953 230.173 290.165 222.283 292.551V319.257L222.259 356.959L188.667 381.374L152.413 355.022L75.3575 299.012L75.3829 299.036Z" fill="white"/>
<style>
  :root {
    color: #000000; /* Black for light mode */
  }
  
  @media (prefers-color-scheme: dark) {
    :root {
      color: #FFFFFF; /* White for dark mode */
    }
  }
</style>
</svg>
